<?xml version="1.0" encoding="UTF-8"?>
<svg
      fill="none"
      width="32"
      height="32"
      viewBox="0 0 32 32"
      xmlns="http://www.w3.org/2000/svg"
      
    >
      <rect width="32" height="32" rx="8" fill="#C850C3" fill-opacity="0.1" />
      <path
        d="M13.7524 16.4491H13.4464C12.4573 16.4491 11.9627 16.4491 11.7519 16.1229C11.5411 15.7969 11.742 15.3425 12.1437 14.4339L13.3514 11.7022C13.7167 10.876 13.8993 10.4629 14.2536 10.2315C14.6079 10 15.0576 10 15.957 10H17.3499C18.4425 10 18.9887 10 19.1947 10.3569C19.4008 10.7138 19.1298 11.1906 18.5877 12.1442L17.8731 13.4013C17.6037 13.8753 17.4689 14.1123 17.4708 14.3063C17.4733 14.5585 17.6073 14.7908 17.8239 14.918C17.9906 15.0159 18.2621 15.0159 18.8053 15.0159C19.4919 15.0159 19.8352 15.0159 20.014 15.1348C20.2463 15.2892 20.3679 15.5655 20.3253 15.8421C20.2925 16.0551 20.0615 16.3104 19.5997 16.8211L15.9096 20.9015C15.1848 21.703 14.8224 22.1037 14.579 21.9769C14.3357 21.8501 14.4525 21.3215 14.6863 20.2641L15.1441 18.1931C15.3221 17.388 15.4111 16.9855 15.1971 16.7173C14.9831 16.4491 14.5728 16.4491 13.7524 16.4491Z"
        stroke="#C850C3"
        stroke-linejoin="round"
      />
    </svg>
