<?xml version="1.0" encoding="UTF-8"?>
<svg
      fill="none"
      width="32"
      height="32"
      viewBox="0 0 32 32"
      xmlns="http://www.w3.org/2000/svg"
      
    >
      <rect width="32" height="32" rx="8" fill="#DA792B" fill-opacity="0.1" />
      <path
        d="M10 11.3333C10 10.3904 10 9.91904 10.2929 9.62615C10.5858 9.33325 11.0572 9.33325 12 9.33325C12.9428 9.33325 13.4142 9.33325 13.7071 9.62615C14 9.91904 14 10.3904 14 11.3333C14 12.2761 14 12.7475 13.7071 13.0404C13.4142 13.3333 12.9428 13.3333 12 13.3333C11.0572 13.3333 10.5858 13.3333 10.2929 13.0404C10 12.7475 10 12.2761 10 11.3333Z"
        stroke="#DA792B"
      />
      <path
        d="M10 20.6667C10 19.7239 10 19.2525 10.2929 18.9596C10.5858 18.6667 11.0572 18.6667 12 18.6667C12.9428 18.6667 13.4142 18.6667 13.7071 18.9596C14 19.2525 14 19.7239 14 20.6667C14 21.6095 14 22.0809 13.7071 22.3739C13.4142 22.6667 12.9428 22.6667 12 22.6667C11.0572 22.6667 10.5858 22.6667 10.2929 22.3739C10 22.0809 10 21.6095 10 20.6667Z"
        stroke="#DA792B"
      />
      <path
        d="M18 12.6667C18 11.7239 18 11.2525 18.2929 10.9596C18.5858 10.6667 19.0572 10.6667 20 10.6667C20.9428 10.6667 21.4142 10.6667 21.7071 10.9596C22 11.2525 22 11.7239 22 12.6667C22 13.6096 22 14.081 21.7071 14.3739C21.4142 14.6667 20.9428 14.6667 20 14.6667C19.0572 14.6667 18.5858 14.6667 18.2929 14.3739C18 14.081 18 13.6096 18 12.6667Z"
        stroke="#DA792B"
      />
      <path
        d="M12 18.6666V13.3333"
        stroke="#DA792B"
        stroke-linecap="round"
        stroke-linejoin="round"
      />
      <path
        d="M20 14.6667C20 15.7713 19.1046 16.6667 18 16.6667H14C12.8954 16.6667 12 17.5621 12 18.6667"
        stroke="#DA792B"
        stroke-linecap="round"
        stroke-linejoin="round"
      />
    </svg>
