<?xml version="1.0" encoding="UTF-8"?>
<svg
      fill="none"
      width="32"
      height="32"
      viewBox="0 0 32 32"
      xmlns="http://www.w3.org/2000/svg"
      
    >
      <rect width="32" height="32" rx="8" fill="#DB4F4F" fill-opacity="0.1" />
      <path
        d="M12.6663 10.9999C11.5618 10.9999 10.6663 11.8954 10.6663 12.9999C10.6663 13.379 10.7718 13.7335 10.955 14.0356C10.0312 14.2123 9.33301 15.0246 9.33301 15.9999C9.33301 16.9753 10.0312 17.7875 10.955 17.9643M12.6663 10.9999C12.6663 10.0794 13.4125 9.33325 14.333 9.33325C15.2535 9.33325 15.9997 10.0794 15.9997 10.9999V20.9999C15.9997 21.9204 15.2535 22.6666 14.333 22.6666C13.4125 22.6666 12.6663 21.9204 12.6663 20.9999C11.5618 20.9999 10.6663 20.1045 10.6663 18.9999C10.6663 18.6208 10.7718 18.2663 10.955 17.9643M12.6663 10.9999C12.6663 11.5452 12.9282 12.0293 13.333 12.3334M10.955 17.9643C11.1927 17.5725 11.5611 17.2687 11.9997 17.1137"
        stroke="#DB4F4F"
        stroke-linecap="round"
        stroke-linejoin="round"
      />
      <path
        d="M19.3333 20.9999C20.4379 20.9999 21.3333 20.1045 21.3333 18.9999C21.3333 18.6208 21.2279 18.2663 21.0447 17.9643C21.9685 17.7875 22.6667 16.9753 22.6667 15.9999C22.6667 15.0246 21.9685 14.2123 21.0447 14.0356M19.3333 20.9999C19.3333 21.9204 18.5871 22.6666 17.6667 22.6666C16.7462 22.6666 16 21.9204 16 20.9999V10.9999C16 10.0794 16.7462 9.33325 17.6667 9.33325C18.5871 9.33325 19.3333 10.0794 19.3333 10.9999C20.4379 10.9999 21.3333 11.8953 21.3333 12.9999C21.3333 13.379 21.2279 13.7335 21.0447 14.0356M19.3333 20.9999C19.3333 20.4547 19.0715 19.9705 18.6667 19.6665M21.0447 14.0356C20.807 14.4274 20.4386 14.7311 20 14.8861"
        stroke="#DB4F4F"
        stroke-linecap="round"
        stroke-linejoin="round"
      />
    </svg>
