<?xml version="1.0" encoding="UTF-8"?>
<svg
      fill="none"
      width="32"
      height="32"
      viewBox="0 0 32 32"
      xmlns="http://www.w3.org/2000/svg"
      
    >
      <rect width="32" height="32" rx="8" fill="#0B9DCD" fill-opacity="0.1" />
      <path
        d="M14.667 16.8194C14.7614 16.974 14.8735 17.1203 15.0031 17.2553C15.8081 18.0931 17.0351 18.2241 17.9721 17.6482C18.1457 17.5415 18.3093 17.4105 18.4585 17.2553L20.6181 15.0077C21.5722 14.0146 21.5722 12.4046 20.6181 11.4115C19.6639 10.4185 18.1169 10.4185 17.1627 11.4115L16.687 11.9066"
        stroke="#0B9DCD"
        stroke-linecap="round"
      />
      <path
        d="M15.3139 20.0933L14.838 20.5885C13.8838 21.5816 12.3368 21.5816 11.3826 20.5885C10.4284 19.5955 10.4284 17.9855 11.3826 16.9924L13.5422 14.7448C14.4964 13.7517 16.0435 13.7517 16.9976 14.7448C17.1273 14.8797 17.2393 15.026 17.3337 15.1805"
        stroke="#0B9DCD"
        stroke-linecap="round"
      />
    </svg>
