<?xml version="1.0" encoding="UTF-8"?>
<svg
      fill="none"
      width="32"
      height="32"
      viewBox="0 0 32 32"
      xmlns="http://www.w3.org/2000/svg"
      
    >
      <rect width="32" height="32" rx="8" fill="#015AEB" fill-opacity="0.1" />
      <path
        d="M15.9997 18.6666C15.9997 20.5075 14.5073 21.9999 12.6663 21.9999C10.8254 21.9999 9.33301 20.5075 9.33301 18.6666C9.33301 16.8257 10.8254 15.3333 12.6663 15.3333C14.5073 15.3333 15.9997 16.8257 15.9997 18.6666Z"
        stroke="#015AEB"
      />
      <path
        d="M20 21C20 21.5523 19.5523 22 19 22C18.4477 22 18 21.5523 18 21C18 20.4477 18.4477 20 19 20C19.5523 20 20 20.4477 20 21Z"
        stroke="#015AEB"
      />
      <path
        d="M12.672 18.6667H12.666"
        stroke="#015AEB"
        stroke-width="0.666667"
        stroke-linecap="round"
        stroke-linejoin="round"
      />
      <path
        d="M11.9997 15.3333L11.5811 11.9846C11.4845 11.2123 11.4363 10.8261 11.2333 10.5478C11.1189 10.3909 10.9717 10.2609 10.8018 10.1669C10.5004 10 10.1113 10 9.33301 10"
        stroke="#015AEB"
        stroke-width="0.666667"
        stroke-linecap="round"
      />
      <path
        d="M12 12.6667H15.6667C17.238 12.6667 18.0237 12.6667 18.5119 13.1549C19 13.6431 19 14.4287 19 16.0001V20.0001"
        stroke="#015AEB"
        stroke-width="0.666667"
        stroke-linecap="round"
      />
      <path
        d="M16 17.3333H18.6827C19.2727 17.3333 19.5677 17.3333 19.8249 17.4591C19.8865 17.4892 19.9459 17.5244 20.0026 17.5645C20.2398 17.7318 20.4035 18.0037 20.7307 18.5475C20.9927 18.9829 21.1237 19.2007 21.3199 19.2852C21.3661 19.3051 21.4141 19.3192 21.4631 19.3273C21.6714 19.3618 21.8826 19.2448 22.3051 19.0108L22.6667 18.8105"
        stroke="#015AEB"
        stroke-width="0.666667"
        stroke-linecap="round"
      />
    </svg>
