<?xml version="1.0" encoding="UTF-8"?>
<svg
      fill="none"
      width="32"
      height="32"
      viewBox="0 0 32 32"
      xmlns="http://www.w3.org/2000/svg"
      
    >
      <rect width="32" height="32" rx="8" fill="#12A73D" fill-opacity="0.1" />
      <path
        d="M17.0003 16.6667L19.3337 14M17.3337 18C17.3337 18.7364 16.7367 19.3333 16.0003 19.3333C15.2639 19.3333 14.667 18.7364 14.667 18C14.667 17.2636 15.2639 16.6667 16.0003 16.6667C16.7367 16.6667 17.3337 17.2636 17.3337 18Z"
        stroke="#12A73D"
        stroke-linecap="round"
      />
      <path
        d="M12 16C12 13.7909 13.7909 12 16 12C16.7286 12 17.4117 12.1948 18 12.5351"
        stroke="#12A73D"
        stroke-linecap="round"
      />
      <path
        d="M9.66699 16.0001C9.66699 13.0145 9.66699 11.5217 10.5945 10.5942C11.522 9.66675 13.0148 9.66675 16.0004 9.66675C18.9859 9.66675 20.4787 9.66675 21.4062 10.5942C22.3337 11.5217 22.3337 13.0145 22.3337 16.0001C22.3337 18.9856 22.3337 20.4784 21.4062 21.4059C20.4787 22.3334 18.9859 22.3334 16.0004 22.3334C13.0148 22.3334 11.522 22.3334 10.5945 21.4059C9.66699 20.4784 9.66699 18.9856 9.66699 16.0001Z"
        stroke="#12A73D"
      />
    </svg>
