<?xml version="1.0" encoding="UTF-8"?>
<svg
      fill="none"
      width="32"
      height="32"
      viewBox="0 0 32 32"
      xmlns="http://www.w3.org/2000/svg"
      
    >
      <rect width="32" height="32" rx="8" fill="#008000" fill-opacity="0.1" />
      <path
        d="M22 15.4555V13.5201C22 12.4268 22 11.8801 21.7306 11.5234C21.4612 11.1668 20.8521 10.9936 19.6338 10.6473C18.8015 10.4107 18.0677 10.1257 17.4815 9.86545C16.6823 9.51065 16.2827 9.33325 16 9.33325C15.7173 9.33325 15.3177 9.51065 14.5185 9.86545C13.9323 10.1257 13.1986 10.4107 12.3662 10.6473C11.148 10.9936 10.5388 11.1668 10.2694 11.5234C10 11.8801 10 12.4268 10 13.5201V15.4555C10 19.2056 13.3752 21.4556 15.0627 22.3462C15.4674 22.5598 15.6697 22.6666 16 22.6666C16.3303 22.6666 16.5326 22.5598 16.9373 22.3462C18.6248 21.4556 22 19.2056 22 15.4555Z"
        stroke="#008000"
        stroke-linecap="round"
      />
      <path
        d="M16 12.6667V14.0001"
        stroke="#008000"
        stroke-width="0.666667"
        stroke-linecap="round"
      />
    </svg>
