<?xml version="1.0" encoding="UTF-8"?>
<svg
      width="16"
      height="17"
      viewBox="0 0 16 17"
      fill="none"
      xmlns="http://www.w3.org/2000/svg"
      
      
    >
      <path
        d="M8.00016 15.3433C11.6821 15.3433 14.6668 12.3586 14.6668 8.67668C14.6668 4.99478 11.6821 2.01001 8.00016 2.01001C4.31826 2.01001 1.3335 4.99478 1.3335 8.67668C1.3335 12.3586 4.31826 15.3433 8.00016 15.3433Z"
        stroke="#0A91B1"
      />
      <path
        d="M10.6665 7.34351L11.4842 8.04831C11.828 8.34457 11.9998 8.49277 11.9998 8.67684C11.9998 8.86091 11.828 9.00911 11.4842 9.30537L10.6665 10.0102"
        stroke="#0A91B1"
        stroke-linecap="round"
        stroke-linejoin="round"
      />
      <path
        d="M5.33333 7.34351L4.51564 8.04831C4.17188 8.34457 4 8.49277 4 8.67684C4 8.86091 4.17188 9.00911 4.51564 9.30537L5.33333 10.0102"
        stroke="#0A91B1"
        stroke-linecap="round"
        stroke-linejoin="round"
      />
      <path
        d="M8.66683 6.67676L7.3335 10.6768"
        stroke="#0A91B1"
        stroke-linecap="round"
        stroke-linejoin="round"
      />
    </svg>
