<?xml version="1.0" encoding="UTF-8"?>
<svg
      width="16"
      height="17"
      viewBox="0 0 16 17"
      fill="none"
      xmlns="http://www.w3.org/2000/svg"
      
      
    >
      <path
        d="M7.99984 6.01001C10.9454 6.01001 13.3332 5.11458 13.3332 4.01001C13.3332 2.90544 10.9454 2.01001 7.99984 2.01001C5.05432 2.01001 2.6665 2.90544 2.6665 4.01001C2.6665 5.11458 5.05432 6.01001 7.99984 6.01001Z"
        stroke="#EA580B"
      />
      <path
        d="M4.6665 7.90454C5.06756 8.02514 5.51606 8.12441 5.99984 8.19787"
        stroke="#EA580B"
        stroke-linecap="round"
      />
      <path
        d="M13.3332 8.67676C13.3332 9.78136 10.9454 10.6768 7.99984 10.6768C5.05432 10.6768 2.6665 9.78136 2.6665 8.67676"
        stroke="#EA580B"
      />
      <path
        d="M4.6665 12.5713C5.06756 12.6919 5.51606 12.7912 5.99984 12.8646"
        stroke="#EA580B"
        stroke-linecap="round"
      />
      <path
        d="M13.3332 4.01001V13.3433C13.3332 14.4479 10.9454 15.3433 7.99984 15.3433C5.05432 15.3433 2.6665 14.4479 2.6665 13.3433V4.01001"
        stroke="#EA580B"
      />
    </svg>
