<?xml version="1.0" encoding="UTF-8"?>
<svg
      width="16"
      height="17"
      viewBox="0 0 16 17"
      fill="none"
      xmlns="http://www.w3.org/2000/svg"
      
      
    >
      <path
        d="M5.3335 12.0103H10.6668"
        stroke="#DB2877"
        stroke-linecap="round"
        stroke-linejoin="round"
      />
      <path
        d="M5.3335 9.34326H8.00016"
        stroke="#DB2877"
        stroke-linecap="round"
        stroke-linejoin="round"
      />
      <path
        d="M8.6665 2.34359V2.67692C8.6665 4.56254 8.6665 5.50535 9.2523 6.09113C9.8381 6.67692 10.7809 6.67692 12.6665 6.67692H12.9998M13.3332 7.78152V10.0103C13.3332 12.5244 13.3332 13.7815 12.5521 14.5625C11.7711 15.3436 10.514 15.3436 7.99984 15.3436C5.48568 15.3436 4.2286 15.3436 3.44755 14.5625C2.6665 13.7815 2.6665 12.5244 2.6665 10.0103V6.98081C2.6665 4.81747 2.6665 3.73579 3.25722 3.00314C3.37656 2.85513 3.51138 2.72031 3.65939 2.60097C4.39204 2.01025 5.47372 2.01025 7.63704 2.01025C8.10744 2.01025 8.34257 2.01025 8.55797 2.08626C8.60277 2.10207 8.64664 2.12025 8.6895 2.14075C8.89557 2.23929 9.06184 2.40559 9.39444 2.73817L12.5521 5.89587C12.9375 6.28125 13.1302 6.47393 13.2317 6.71896C13.3332 6.96399 13.3332 7.23649 13.3332 7.78152Z"
        stroke="#DB2877"
        stroke-linecap="round"
        stroke-linejoin="round"
      />
    </svg>
