<?xml version="1.0" encoding="UTF-8"?>
<svg
      width="16"
      height="17"
      viewBox="0 0 16 17"
      fill="none"
      xmlns="http://www.w3.org/2000/svg"
      
      
    >
      <path
        d="M5.75193 9.12582H5.44596C4.4568 9.12582 3.96222 9.12582 3.75141 8.79969C3.5406 8.47362 3.74146 8.01929 4.1432 7.11064L5.35096 4.37891C5.71622 3.55276 5.89885 3.13968 6.25315 2.90822C6.60745 2.67676 7.0571 2.67676 7.9565 2.67676H9.34944C10.442 2.67676 10.9882 2.67676 11.1942 3.03366C11.4003 3.39056 11.1293 3.86734 10.5872 4.82091L9.87264 6.07801C9.60317 6.55206 9.46844 6.78908 9.4703 6.9831C9.47277 7.23526 9.60684 7.46756 9.82344 7.59476C9.9901 7.69269 10.2616 7.69269 10.8048 7.69269C11.4914 7.69269 11.8347 7.69269 12.0135 7.81156C12.2458 7.96596 12.3674 8.24222 12.3248 8.51889C12.292 8.73182 12.061 8.98716 11.5992 9.49789L7.9091 13.5783C7.1843 14.3798 6.8219 14.7805 6.57855 14.6537C6.33519 14.5268 6.45206 13.9982 6.68577 12.9409L7.14364 10.8698C7.32157 10.0648 7.41057 9.66222 7.19657 9.39402C6.98257 9.12582 6.57235 9.12582 5.75193 9.12582Z"
        stroke="#CA8A03"
        stroke-linejoin="round"
      />
    </svg>
