<?xml version="1.0" encoding="UTF-8"?>
<svg
      width="16"
      height="17"
      viewBox="0 0 16 17"
      fill="none"
      xmlns="http://www.w3.org/2000/svg"
      
      
    >
      <path
        d="M5.6665 10.3433H10.3332M5.6665 7.01001H7.99984"
        stroke="#9334E9"
        stroke-linecap="round"
        stroke-linejoin="round"
      />
      <path
        d="M9.44723 14.6038C12.2359 14.4185 14.4572 12.1656 14.64 9.33744C14.6758 8.78397 14.6758 8.21077 14.64 7.65731C14.4572 4.82909 12.2359 2.57626 9.44723 2.39089C8.49583 2.32765 7.50256 2.32778 6.55309 2.39089C3.76442 2.57626 1.5431 4.82909 1.36032 7.65731C1.32455 8.21077 1.32455 8.78397 1.36032 9.33744C1.42689 10.3675 1.88245 11.3212 2.41877 12.1266C2.73017 12.6904 2.52465 13.394 2.2003 14.0087C1.96643 14.4519 1.8495 14.6735 1.94339 14.8336C2.03728 14.9936 2.247 14.9988 2.66645 15.009C3.49594 15.0292 4.05528 14.794 4.49928 14.4666C4.75109 14.2809 4.87701 14.188 4.96379 14.1774C5.05056 14.1667 5.22134 14.237 5.56283 14.3777C5.86976 14.5041 6.22613 14.5821 6.55309 14.6038C7.50256 14.667 8.49583 14.6671 9.44723 14.6038Z"
        stroke="#9334E9"
        stroke-linejoin="round"
      />
    </svg>
