<?xml version="1.0" encoding="UTF-8"?>
<svg
      width="16"
      height="17"
      viewBox="0 0 16 17"
      fill="none"
      xmlns="http://www.w3.org/2000/svg"
      
      
    >
      <path
        d="M12.6668 3.34351H3.3335C2.71224 3.34351 2.40162 3.34351 2.15658 3.445C1.82988 3.58033 1.57032 3.83989 1.43499 4.16659C1.3335 4.41163 1.3335 4.72225 1.3335 5.34351C1.3335 5.96476 1.3335 6.27539 1.43499 6.52042C1.57032 6.84712 1.82988 7.10669 2.15658 7.24201C2.40162 7.34351 2.71224 7.34351 3.3335 7.34351H12.6668C13.2881 7.34351 13.5987 7.34351 13.8438 7.24201C14.1704 7.10669 14.43 6.84712 14.5654 6.52042C14.6668 6.27539 14.6668 5.96476 14.6668 5.34351C14.6668 4.72225 14.6668 4.41163 14.5654 4.16659C14.43 3.83989 14.1704 3.58033 13.8438 3.445C13.5987 3.34351 13.2881 3.34351 12.6668 3.34351Z"
        stroke="#2463EB"
        stroke-linecap="round"
        stroke-linejoin="round"
      />
      <path
        d="M12.6668 10.01H3.3335C2.71224 10.01 2.40162 10.01 2.15658 10.1115C1.82988 10.2468 1.57032 10.5064 1.43499 10.8331C1.3335 11.0781 1.3335 11.3887 1.3335 12.01C1.3335 12.6313 1.3335 12.9419 1.43499 13.1869C1.57032 13.5136 1.82988 13.7732 2.15658 13.9085C2.40162 14.01 2.71224 14.01 3.3335 14.01H12.6668C13.2881 14.01 13.5987 14.01 13.8438 13.9085C14.1704 13.7732 14.43 13.5136 14.5654 13.1869C14.6668 12.9419 14.6668 12.6313 14.6668 12.01C14.6668 11.3887 14.6668 11.0781 14.5654 10.8331C14.43 10.5064 14.1704 10.2468 13.8438 10.1115C13.5987 10.01 13.2881 10.01 12.6668 10.01Z"
        stroke="#2463EB"
        stroke-linecap="round"
        stroke-linejoin="round"
      />
      <path
        d="M4 12.01H4.00667"
        stroke="#2463EB"
        stroke-width="1.33333"
        stroke-linecap="round"
        stroke-linejoin="round"
      />
      <path
        d="M6.6665 12.01H6.67317"
        stroke="#2463EB"
        stroke-width="1.33333"
        stroke-linecap="round"
        stroke-linejoin="round"
      />
      <path
        d="M4 5.34351H4.00667"
        stroke="#2463EB"
        stroke-width="1.33333"
        stroke-linecap="round"
        stroke-linejoin="round"
      />
      <path
        d="M6.6665 5.34351H6.67317"
        stroke="#2463EB"
        stroke-width="1.33333"
        stroke-linecap="round"
        stroke-linejoin="round"
      />
    </svg>
